<svg width="87" height="65" viewBox="0 0 87 65" fill="none" xmlns="http://www.w3.org/2000/svg">
<path d="M37.643 65.0001C37.5349 65.0001 37.4267 64.9667 37.3335 64.8976C37.2782 64.8569 37.2315 64.8057 37.196 64.747C37.1606 64.6882 37.137 64.623 37.1268 64.5552C37.1165 64.4873 37.1197 64.4181 37.1362 64.3515C37.1528 64.2848 37.1822 64.2221 37.223 64.1669L50.3253 46.4174C50.366 46.3621 50.4172 46.3154 50.476 46.28C50.5347 46.2445 50.5999 46.221 50.6678 46.2107C50.7357 46.2004 50.8049 46.2037 50.8715 46.2202C50.9381 46.2367 51.0009 46.2662 51.0561 46.3069C51.1114 46.3476 51.158 46.3988 51.1935 46.4576C51.229 46.5163 51.2525 46.5815 51.2628 46.6494C51.273 46.7173 51.2698 46.7865 51.2533 46.8531C51.2368 46.9197 51.2073 46.9824 51.1666 47.0376L38.0643 64.7883C38.0155 64.854 37.9519 64.9074 37.8788 64.9442C37.8057 64.981 37.7249 65.0001 37.643 65.0001Z" fill="#1CAB7D"/>
<path d="M15.9829 23.9255C15.8194 23.9255 15.6928 23.9634 15.6065 24.0394C15.5398 24.0981 9.84313 29.3341 8.26993 30.7806C6.68983 29.3341 0.969007 24.0969 0.894203 24.0371C0.799834 23.9623 0.669789 23.9243 0.507521 23.9243C0.357912 23.9243 0.234771 23.9773 0.140403 24.0808C0.0471846 24.1832 0 24.3351 0 24.5331V41.5496C0 41.7314 0.051788 41.8787 0.153062 41.9891C0.255487 42.1008 0.391286 42.1583 0.558158 42.1583C0.72503 42.1583 0.857375 42.1008 0.952895 41.988C1.04496 41.8775 1.091 41.7302 1.091 41.5496V25.7138C2.97032 27.448 7.83837 31.936 7.90742 31.997C8.00064 32.081 8.13183 32.1247 8.2964 32.1247C8.46097 32.1247 8.58757 32.0867 8.67273 32.0108C8.73487 31.9556 13.558 27.5159 15.4005 25.8196V41.5519C15.4005 41.7325 15.4477 41.8798 15.5386 41.9903C15.633 42.1031 15.7746 42.1606 15.9575 42.1606C16.1244 42.1606 16.2568 42.1031 16.3511 41.9903C16.4432 41.8798 16.4892 41.7325 16.4892 41.5519V24.5342C16.4892 24.3363 16.442 24.1844 16.3488 24.082C16.2556 23.9784 16.1325 23.9255 15.9829 23.9255ZM34.5183 23.9255C34.3526 23.9255 34.2168 23.9772 34.1143 24.0797C34.0119 24.1821 33.9601 24.3351 33.9601 24.5342V39.9787L22.4253 24.3041C22.3355 24.1614 22.2526 24.0647 22.1698 24.0106C22.0846 23.9531 21.9638 23.9255 21.7992 23.9255C21.6484 23.9255 21.5242 23.983 21.4309 24.0958C21.3389 24.2063 21.2928 24.3616 21.2928 24.5595V41.5519C21.2928 41.7337 21.3446 41.881 21.4459 41.9915C21.5483 42.1031 21.6841 42.1606 21.851 42.1606C22.0179 42.1606 22.1502 42.1031 22.2457 41.9903C22.3378 41.8798 22.3838 41.7325 22.3838 41.5519V26.0728L33.9463 41.7843C34.0338 41.9063 34.1282 42.0007 34.226 42.0639C34.3272 42.1284 34.4423 42.1606 34.5701 42.1606C34.722 42.1606 34.8417 42.1031 34.928 41.988C35.0108 41.8775 35.0523 41.7233 35.0523 41.5265V24.5342C35.0523 24.3363 35.0051 24.1844 34.9119 24.082C34.8163 23.9784 34.684 23.9255 34.5183 23.9255ZM50.7796 24.6102C50.7796 24.4445 50.7267 24.3121 50.6231 24.2178C50.5207 24.1245 50.3769 24.0774 50.1962 24.0774H40.4865C40.2713 24.0774 40.101 24.1384 39.9813 24.2569C39.8616 24.3766 39.8018 24.5457 39.8018 24.7621V41.324C39.8018 41.5403 39.8628 41.7095 39.9813 41.8292C40.0999 41.9489 40.2702 42.0087 40.4865 42.0087H50.1962C50.378 42.0087 50.5207 41.9615 50.6231 41.8683C50.7267 41.774 50.7796 41.6336 50.7796 41.4506C50.7796 41.2849 50.7267 41.1525 50.6231 41.0582C50.5207 40.965 50.3769 40.9178 50.1962 40.9178H40.9687V25.1683H50.1962C50.378 25.1683 50.5207 25.1211 50.6231 25.0279C50.7267 24.9335 50.7796 24.7931 50.7796 24.6102ZM86.649 24.2178C86.5466 24.1245 86.3947 24.0774 86.1967 24.0774H72.3395C72.1588 24.0774 72.0115 24.1246 71.901 24.2155C71.7882 24.3098 71.7307 24.4422 71.7307 24.609C71.7307 24.7759 71.7871 24.9117 71.8999 25.0141C72.0103 25.1154 72.1588 25.1671 72.3395 25.1671H78.6852V41.5507C78.6852 41.7325 78.737 41.8798 78.8383 41.9903C78.9407 42.1019 79.0857 42.1595 79.2687 42.1595C79.4689 42.1595 79.6185 42.1019 79.7129 41.9891C79.805 41.8787 79.851 41.7314 79.851 41.5507V25.1683H86.1967C86.3947 25.1683 86.5466 25.1211 86.649 25.0279C86.7526 24.9335 86.8055 24.7931 86.8055 24.6102C86.8055 24.4445 86.7526 24.3121 86.649 24.2178Z" fill="#fff"/>
<path d="M85.2783 0.489941C85.2553 0.338039 85.1748 0.204549 85.0516 0.112487C84.991 0.0674849 84.922 0.0349562 84.8487 0.0167833C84.7755 -0.00138963 84.6993 -0.00484551 84.6246 0.00661639C84.4727 0.0296318 84.3392 0.110186 84.2472 0.233319L53.8466 41.4149C53.8016 41.4755 53.7691 41.5445 53.7509 41.6177C53.7327 41.691 53.7293 41.7672 53.7407 41.8418C53.7637 41.9937 53.8443 42.1272 53.9674 42.2193C54.0676 42.2929 54.1849 42.3321 54.3081 42.3321C54.4899 42.3321 54.6637 42.2446 54.7707 42.0984L85.1713 0.916878C85.2634 0.793746 85.3002 0.641843 85.2783 0.489941Z" fill="#1CAB7D"/>
<path d="M59.3169 31.4193C59.3706 31.4909 59.4403 31.5491 59.5204 31.5893C59.6005 31.6294 59.6888 31.6504 59.7784 31.6506C59.9027 31.6506 60.0212 31.6115 60.1213 31.5367C60.2444 31.4446 60.325 31.3111 60.3469 31.1592C60.3687 31.0073 60.3308 30.8554 60.2398 30.7323L55.2176 23.9818C55.0288 23.7275 54.6675 23.6746 54.4131 23.8633C54.29 23.9554 54.2094 24.0889 54.1876 24.2408C54.1657 24.3927 54.2037 24.5446 54.2946 24.6677L59.3169 31.4193ZM62.6934 34.0845C62.6038 33.9611 62.4688 33.8784 62.3182 33.8545C62.1676 33.8305 62.0137 33.8673 61.8902 33.9567C61.7668 34.0464 61.6841 34.1813 61.6601 34.3319C61.6362 34.4825 61.673 34.6365 61.7624 34.76L67.0896 42.095C67.1432 42.1684 67.2134 42.2281 67.2943 42.2693C67.3753 42.3105 67.4649 42.332 67.5557 42.3321C67.6777 42.3321 67.794 42.2941 67.8929 42.2227C68.0163 42.1331 68.099 41.9981 68.123 41.8475C68.1469 41.6969 68.1101 41.543 68.0207 41.4195L62.6934 34.0845ZM42.7713 32.295C42.4548 32.295 42.1958 32.5528 42.1958 32.8704C42.1958 33.1869 42.4536 33.4458 42.7713 33.4458H49.8731C50.1896 33.4458 50.4485 33.188 50.4485 32.8704C50.4485 32.5539 50.1907 32.295 49.8731 32.295H42.7713Z" fill="#fff"/>
</svg>
 